<svg width="16" height="16" viewBox="0 0 16 16" fill="currentColor" xmlns="http://www.w3.org/2000/svg">
    <mask id="path-1-inside-1_1047_24211">
        <path d="M3.2 0H12.8V1.6H3.2V0ZM1.6 3.2V1.6H3.2V3.2H1.6ZM1.6 12.8V3.2H0V12.8H1.6ZM3.2 14.4V12.8H1.6V14.4H3.2ZM12.8 14.4V16H3.2V14.4H12.8ZM14.4 12.8V14.4H12.8V12.8H14.4ZM14.4 3.2H16V12.8H14.4V3.2ZM14.4 3.2V1.6H12.8V3.2H14.4ZM7.2 2.4H8.8V4H11.2V5.6H6.4V7.2H11.2V12H8.8V13.6H7.2V12H4.8V10.4H9.6V8.8H4.8V4H7.2V2.4Z"/>
    </mask>
    <path d="M3.2 0H12.8V1.6H3.2V0ZM1.6 3.2V1.6H3.2V3.2H1.6ZM1.6 12.8V3.2H0V12.8H1.6ZM3.2 14.4V12.8H1.6V14.4H3.2ZM12.8 14.4V16H3.2V14.4H12.8ZM14.4 12.8V14.4H12.8V12.8H14.4ZM14.4 3.2H16V12.8H14.4V3.2ZM14.4 3.2V1.6H12.8V3.2H14.4ZM7.2 2.4H8.8V4H11.2V5.6H6.4V7.2H11.2V12H8.8V13.6H7.2V12H4.8V10.4H9.6V8.8H4.8V4H7.2V2.4Z"/>
    <path d="M3.2 0V-4.24154H-1.04154V0H3.2ZM12.8 0H17.0415V-4.24154H12.8V0ZM1.6 1.6V-2.64154H-2.64154V1.6H1.6ZM3.2 3.2V7.44154H7.44154V3.2H3.2ZM0 3.2V-1.04154H-4.24154V3.2H0ZM0 12.8H-4.24154V17.0415H0V12.8ZM3.2 12.8H7.44154V8.55846H3.2V12.8ZM1.6 14.4H-2.64154V18.6415H1.6V14.4ZM12.8 16V20.2415H17.0415V16H12.8ZM3.2 16H-1.04154V20.2415H3.2V16ZM14.4 14.4V18.6415H18.6415V14.4H14.4ZM12.8 12.8V8.55846H8.55846V12.8H12.8ZM16 3.2H20.2415V-1.04154H16V3.2ZM16 12.8V17.0415H20.2415V12.8H16ZM14.4 1.6H18.6415V-2.64154H14.4V1.6ZM12.8 3.2H8.55846V7.44154H12.8V3.2ZM7.2 2.4V-1.84154H2.95846V2.4H7.2ZM8.8 2.4H13.0415V-1.84154H8.8V2.4ZM8.8 4H4.55846V8.24154H8.8V4ZM11.2 4H15.4415V-0.241536H11.2V4ZM11.2 5.6V9.84154H15.4415V5.6H11.2ZM6.4 5.6V1.35846H2.15846V5.6H6.4ZM6.4 7.2H2.15846V11.4415H6.4V7.2ZM11.2 7.2H15.4415V2.95846H11.2V7.2ZM11.2 12V16.2415H15.4415V12H11.2ZM8.8 12V7.75846H4.55846V12H8.8ZM8.8 13.6V17.8415H13.0415V13.6H8.8ZM7.2 13.6H2.95846V17.8415H7.2V13.6ZM7.2 12H11.4415V7.75846H7.2V12ZM4.8 12H0.558464V16.2415H4.8V12ZM4.8 10.4V6.15846H0.558464V10.4H4.8ZM9.6 10.4V14.6415H13.8415V10.4H9.6ZM9.6 8.8H13.8415V4.55846H9.6V8.8ZM4.8 8.8H0.558464V13.0415H4.8V8.8ZM4.8 4V-0.241536H0.558464V4H4.8ZM7.2 4V8.24154H11.4415V4H7.2ZM3.2 4.24154H12.8V-4.24154H3.2V4.24154ZM8.55846 0V1.6H17.0415V0H8.55846ZM12.8 -2.64154H3.2V5.84154H12.8V-2.64154ZM7.44154 1.6V0H-1.04154V1.6H7.44154ZM5.84154 3.2V1.6H-2.64154V3.2H5.84154ZM1.6 5.84154H3.2V-2.64154H1.6V5.84154ZM-1.04154 1.6V3.2H7.44154V1.6H-1.04154ZM3.2 -1.04154H1.6V7.44154H3.2V-1.04154ZM5.84154 12.8V3.2H-2.64154V12.8H5.84154ZM1.6 -1.04154H0V7.44154H1.6V-1.04154ZM-4.24154 3.2V12.8H4.24154V3.2H-4.24154ZM0 17.0415H1.6V8.55846H0V17.0415ZM7.44154 14.4V12.8H-1.04154V14.4H7.44154ZM3.2 8.55846H1.6V17.0415H3.2V8.55846ZM-2.64154 12.8V14.4H5.84154V12.8H-2.64154ZM1.6 18.6415H3.2V10.1585H1.6V18.6415ZM8.55846 14.4V16H17.0415V14.4H8.55846ZM12.8 11.7585H3.2V20.2415H12.8V11.7585ZM7.44154 16V14.4H-1.04154V16H7.44154ZM3.2 18.6415H12.8V10.1585H3.2V18.6415ZM10.1585 12.8V14.4H18.6415V12.8H10.1585ZM14.4 10.1585H12.8V18.6415H14.4V10.1585ZM17.0415 14.4V12.8H8.55846V14.4H17.0415ZM12.8 17.0415H14.4V8.55846H12.8V17.0415ZM14.4 7.44154H16V-1.04154H14.4V7.44154ZM11.7585 3.2V12.8H20.2415V3.2H11.7585ZM16 8.55846H14.4V17.0415H16V8.55846ZM18.6415 12.8V3.2H10.1585V12.8H18.6415ZM18.6415 3.2V1.6H10.1585V3.2H18.6415ZM14.4 -2.64154H12.8V5.84154H14.4V-2.64154ZM8.55846 1.6V3.2H17.0415V1.6H8.55846ZM12.8 7.44154H14.4V-1.04154H12.8V7.44154ZM7.2 6.64154H8.8V-1.84154H7.2V6.64154ZM4.55846 2.4V4H13.0415V2.4H4.55846ZM8.8 8.24154H11.2V-0.241536H8.8V8.24154ZM6.95846 4V5.6H15.4415V4H6.95846ZM11.2 1.35846H6.4V9.84154H11.2V1.35846ZM2.15846 5.6V7.2H10.6415V5.6H2.15846ZM6.4 11.4415H11.2V2.95846H6.4V11.4415ZM6.95846 7.2V12H15.4415V7.2H6.95846ZM11.2 7.75846H8.8V16.2415H11.2V7.75846ZM4.55846 12V13.6H13.0415V12H4.55846ZM8.8 9.35846H7.2V17.8415H8.8V9.35846ZM11.4415 13.6V12H2.95846V13.6H11.4415ZM7.2 7.75846H4.8V16.2415H7.2V7.75846ZM9.04154 12V10.4H0.558464V12H9.04154ZM4.8 14.6415H9.6V6.15846H4.8V14.6415ZM13.8415 10.4V8.8H5.35846V10.4H13.8415ZM9.6 4.55846H4.8V13.0415H9.6V4.55846ZM9.04154 8.8V4H0.558464V8.8H9.04154ZM4.8 8.24154H7.2V-0.241536H4.8V8.24154ZM11.4415 4V2.4H2.95846V4H11.4415Z"
          mask="url(#path-1-inside-1_1047_24211)"/>
</svg>
