<svg id="图层_1" data-name="图层 1" xmlns="http://www.w3.org/2000/svg"
     fill="currentColor"
     viewBox="0 0 1280 1280"
>
    <!-- 添加背景色 ref: https://www.geeksforgeeks.org/how-to-set-the-svg-background-color/-->
    <!--    <rect width="100%" height="100%" fill="black"/>-->

    <path class="cls-1"
          d="M1196.56,991.34h-.44l.21-.38-26.77-46.36h-.42l.21-.37-26.77-46.36h-.44l.23-.39-26.75-46.33h-.47l.23-.39-26.75-46.34H926.76l26.75,46.34.24.39,26.75,46.33.21.39,26.77,46.34.21.39,26.75,46.33.24.41,26.76,46.33.22.4h53.51l.22-.39.23.39h53.5l.23-.39.23.39h53.52l.21-.39ZM1007.24,851.15l.24-.39.23.39Zm27,46.72.23-.39.21.39Zm54.17-.39.23.39h-.44Zm-27-46.72.23.39h-.44Zm-.21,93.84.23-.39.22.39Zm27,46.74.24-.41.23.41Zm27-46.74.21-.39.22.39Zm27,46.74.21-.38.23.38Z"/>
    <path class="cls-1"
          d="M926.32,617.49H818.84l26.75,46.33.23.41,26.75,46.34.23.38,26.75,46.34.23.39H953.3l.22-.39.21.39h53.52l.21-.37.23.37h53.52l.23-.37L1034.67,711h-.44l.21-.38-26.75-46.34h-.44l.23-.39-26.77-46.35H926.32Zm-27,46.74.21-.39.23.39Zm27,46.72.22-.38.22.38Zm54.17-.38.22.38h-.44Zm-27-46.73.22.39h-.43Z"/>
    <path class="cls-1"
          d="M845.37,477.31H737.91l26.75,46.33.21.38,26.77,46.35.22.39h53.51l.22-.39.23.39h53.5l.23-.39.23.39H953.3l.21-.37L926.74,524h-.44l.23-.38-26.75-46.33H845.37Zm-27,46.71.22-.38.23.38Zm54.18-.37.21.37h-.43Z"/>
    <path class="cls-1"
          d="M926.3,991.34l.23-.39L899.76,944.6h-.44l.23-.37-26.77-46.36h-.42l.21-.37-26.75-46.35h-.45l.22-.37-26.76-46.36h-.43l.21-.38-26.76-46.36h-.44l.21-.39L764.87,711h-.44l.21-.38-26.75-46.34h-.44l.21-.39-26.75-46.35h-.44l.22-.39-26.76-46.34h-.43l.21-.37L656.94,524h-.42l.21-.37L630,477.31h-.44l.21-.38L603,430.57h-.44l.21-.37L576,383.84h-.43l.22-.39L549,337.1h-.44l.22-.37-26.76-46.35h-54.4L440.9,336.73l.21.37h-.44l-26.76,46.36.22.38h-.43l-26.76,46.34.22.39h-.44L360,476.92l.23.39h-.46L333,523.65l.23.37h-.44L306,570.39l.21.37h-.42L279,617.1l.22.39h-.45L252,663.84l.22.39h-.45l-26.75,46.34.21.38h-.44l-26.75,46.34.21.39h-.44L171.1,804l.23.39h-.46l-26.75,46.34.23.39h-.45L117.13,897.5l.23.37h-.44L90.17,944.21l.21.39h-.44L63.17,991l.23.39H63l-26.77,46.34.23.39h53.5l.25-.39.22.39H143.9l.22-.39.23.39h53.49l.24-.39,26.75-46.34.23-.41,26.75-46.33.23-.39,26.75-46.34.23-.39,26.75-46.33.22-.39,26.76-46.34L333,804l26.75-46.35.23-.39L386.72,711l.21-.38,26.75-46.34.23-.39,26.75-46.35.24-.39,26.75-46.34.23-.39.23.39h53.52l.21-.37.21.37,26.76,46.36.23.37,26.75,46.35.23.39,26.75,46.34.21.38,26.77,46.34.23.39L656.73,804l.23.39,26.75,46.34.22.39,26.76,46.33.22.39,26.77,46.36.21.37L764.66,991l.21.38,26.77,46.34.22.39h53.51l.22-.39.23.39h53.5l.23-.39.23.39h53.5l.23-.39-26.75-46.34Zm-809.38,0,.22-.39.23.39Zm27-46.74.22-.39.21.39Zm27,46.74.23-.39.21.39Zm0-93.47.23-.39.23.39Zm27,46.73.23-.39.23.39Zm0-93.45.23-.39.23.39Zm27,46.72.23-.39.22.39Zm0-93.45.23-.39.22.39ZM252,757.29l.21.39h-.44Zm-.23,93.86.23-.39.22.39ZM279,710.57l.21.38h-.43Zm-.23,93.85L279,804l.22.39Zm27-46.74.22-.39.23.39Zm0-93.45.22-.39.23.39Zm27,46.72.21-.38.21.38Zm0-93.46.22-.39.23.39Zm27,46.74.23-.39.23.39Zm0-93.47.21-.39.23.39Zm27,46.73.21-.39.23.39Zm0-93.47.22-.38.22.38Zm27,46.74.22-.39.21.39Zm0-93.45.22-.39.23.39Zm27,46.71.23-.38.21.38Zm0-93.45.23-.39.21.39Zm27,46.74.23-.39.21.39Zm0-93.47.23-.38.21.38Zm54.19-.38.21.38h-.44ZM494.63,524l.21-.38.23.38Zm0-93.45.23-.39.21.39Zm0-93.47.23-.37.21.37Zm27,140.21.23-.39.22.39Zm27,46.71.21-.37.22.37Zm0-93.45.22-.39.22.39Zm54.18,93.08.21.37h-.42Zm-27.19,47.11.21-.37.21.37Zm0-93.45.21-.38.23.38Zm27,140.18.21-.37.23.37Zm27,46.74.23-.39.23.39Zm0-93.47.21-.37.23.37Zm27,140.19.21-.38.23.38Zm0-93.46.21-.39.23.39Zm27,140.19.21-.37.22.37Zm0-93.45.23-.39.22.39Zm27,140.19.22-.39.22.39Zm0-93.47.22-.38.22.38Zm27,140.2.22-.39.23.39Zm0-93.47.21-.37.23.37Zm27,140.19.21-.37.21.37Zm0-93.45.22-.39.23.39Zm27,140.18.21-.37.21.37Zm0-93.45.23-.37.21.37Zm27,140.19.22-.38.22.38Zm0-93.47.21-.37.22.37Zm27,46.73.21-.37.21.37Zm27,46.74.22-.39.23.39Z"/>
    <polygon class="cls-1"
             points="791.41 383.84 737.89 383.84 737.45 383.84 683.93 383.84 710.7 430.18 710.93 430.57 764.43 430.57 764.66 430.18 764.88 430.57 818.39 430.57 818.62 430.18 818.83 430.57 872.35 430.57 872.57 430.18 845.8 383.84 845.37 383.84 791.85 383.84 791.41 383.84"/>
    <polygon class="cls-1"
             points="656.96 337.1 710.48 337.1 710.7 336.73 710.91 337.1 764.45 337.1 764.66 336.73 764.87 337.1 818.39 337.1 818.62 336.73 791.85 290.38 791.41 290.38 737.89 290.38 737.45 290.38 683.93 290.38 683.5 290.38 629.98 290.38 656.75 336.73 656.96 337.1"/>
</svg>
