<?xml version="1.0" encoding="utf-8"?>
<!-- Generator: Adobe Illustrator 25.0.0, SVG Export Plug-In . SVG Version: 6.00 Build 0)  -->
<svg version="1.1" id="图层_1" xmlns="http://www.w3.org/2000/svg" xmlns:xlink="http://www.w3.org/1999/xlink" x="0px" y="0px"
	 viewBox="0 0 5484.3 1280" style="enable-background:new 0 0 5484.3 1280;" xml:space="preserve" fill="currentColor">
<path class="st0" d="M1345,2443.6h-0.4l0.2-0.4l-26.8-46.4h-0.4l0.2-0.4l-26.8-46.4h-0.4l0.2-0.4l-26.8-46.3h-0.5l0.2-0.4
	l-26.8-46.3h-161.9l26.8,46.3l0.2,0.4l26.8,46.3l0.2,0.4l26.8,46.3l0.2,0.4l26.8,46.3l0.2,0.4l26.8,46.3l0.2,0.4h53.5l0.2-0.4
	l0.2,0.4h53.5l0.2-0.4l0.2,0.4h53.5l0.2-0.4L1345,2443.6z M1155.7,2303.4l0.2-0.4l0.2,0.4H1155.7z M1182.7,2350.1l0.2-0.4l0.2,0.4
	H1182.7z M1236.9,2349.7l0.2,0.4h-0.4L1236.9,2349.7z M1209.9,2303l0.2,0.4h-0.4L1209.9,2303z M1209.7,2396.9l0.2-0.4l0.2,0.4
	H1209.7z M1236.7,2443.6l0.2-0.4l0.2,0.4H1236.7z M1263.7,2396.9l0.2-0.4l0.2,0.4H1263.7z M1290.7,2443.6l0.2-0.4l0.2,0.4H1290.7z"
	/>
<path class="st0" d="M1074.8,2069.7H967.3l26.8,46.3l0.2,0.4l26.8,46.3l0.2,0.4l26.8,46.3l0.2,0.4h53.5l0.2-0.4l0.2,0.4h53.5
	l0.2-0.4l0.2,0.4h53.5l0.2-0.4l-26.8-46.3h-0.4l0.2-0.4l-26.8-46.3h-0.4l0.2-0.4l-26.8-46.3L1074.8,2069.7L1074.8,2069.7z
	 M1047.8,2116.5l0.2-0.4l0.2,0.4H1047.8z M1074.8,2163.2l0.2-0.4l0.2,0.4H1074.8z M1129,2162.8l0.2,0.4h-0.4L1129,2162.8z
	 M1102,2116.1l0.2,0.4h-0.4L1102,2116.1z"/>
<path class="st0" d="M993.9,1929.6H886.4l26.8,46.3l0.2,0.4l26.8,46.3l0.2,0.4h53.5l0.2-0.4l0.2,0.4h53.5l0.2-0.4l0.2,0.4h53.5
	l0.2-0.4l-26.8-46.4h-0.4l0.2-0.4l-26.8-46.3L993.9,1929.6L993.9,1929.6z M966.9,1976.3l0.2-0.4l0.2,0.4H966.9z M1021,1975.9
	l0.2,0.4h-0.4L1021,1975.9z"/>
<path class="st0" d="M1074.8,2443.6l0.2-0.4l-26.8-46.4h-0.4l0.2-0.4l-26.8-46.4h-0.4l0.2-0.4l-26.8-46.4h-0.5l0.2-0.4l-26.8-46.4
	h-0.4l0.2-0.4l-26.8-46.4h-0.4l0.2-0.4l-26.8-46.3h-0.4l0.2-0.4l-26.8-46.3h-0.4l0.2-0.4l-26.8-46.3H859l0.2-0.4l-26.8-46.3H832
	l0.2-0.4l-26.8-46.4H805l0.2-0.4l-26.7-46.3H778l0.2-0.4l-26.8-46.4H751l0.2-0.4l-26.8-46.4h-0.4l0.2-0.4l-26.8-46.3H697l0.2-0.4
	l-26.8-46.3h-54.4l-26.7,46.3l0.2,0.4h-0.4l-26.8,46.4l0.2,0.4h-0.4l-26.8,46.3l0.2,0.4h-0.4l-26.7,46.3l0.2,0.4h-0.5l-26.8,46.3
	l0.2,0.4h-0.4l-26.8,46.4l0.2,0.4h-0.4l-26.8,46.3l0.2,0.4h-0.5l-26.8,46.4l0.2,0.4h-0.4l-26.8,46.3l0.2,0.4h-0.4l-26.8,46.3
	l0.2,0.4h-0.4l-26.7,46.3l0.2,0.4h-0.5l-26.8,46.3l0.2,0.4h-0.5l-26.8,46.4l0.2,0.4h-0.4l-26.8,46.3l0.2,0.4h-0.4l-26.8,46.4
	l0.2,0.4h-0.4l-26.8,46.3l0.2,0.4h53.5l0.2-0.4l0.2,0.4h53.5l0.2-0.4l0.2,0.4h53.5l0.2-0.4l26.8-46.3l0.2-0.4l26.8-46.3l0.2-0.4
	l26.7-46.3l0.2-0.4l26.8-46.3l0.2-0.4l26.8-46.3l0.2-0.5l26.8-46.4l0.2-0.4l26.7-46.3l0.2-0.4l26.8-46.3l0.2-0.4l26.8-46.3l0.2-0.4
	l26.8-46.3l0.2-0.4l0.2,0.4h53.5l0.2-0.4l0.2,0.4l26.8,46.4l0.2,0.4l26.8,46.4l0.2,0.4l26.8,46.3l0.2,0.4l26.8,46.3l0.2,0.4
	l26.7,46.3l0.2,0.4l26.8,46.3l0.2,0.4l26.8,46.3l0.2,0.4l26.8,46.4l0.2,0.4l26.8,46.4l0.2,0.4l26.8,46.3l0.2,0.4h53.5l0.2-0.4
	l0.2,0.4h53.5l0.2-0.4l0.2,0.4h53.5l0.2-0.4l-26.8-46.3L1074.8,2443.6z M265.4,2443.6l0.2-0.4l0.2,0.4H265.4z M292.4,2396.9l0.2-0.4
	l0.2,0.4H292.4z M319.4,2443.6l0.2-0.4l0.2,0.4H319.4z M319.4,2350.1l0.2-0.4l0.2,0.4H319.4z M346.4,2396.9l0.2-0.4l0.2,0.4H346.4z
	 M346.4,2303.4l0.2-0.4l0.2,0.4H346.4z M373.4,2350.1l0.2-0.4l0.2,0.4H373.4z M373.4,2256.7l0.2-0.4l0.2,0.4H373.4z M400.5,2209.5
	l0.2,0.4h-0.4L400.5,2209.5z M400.3,2303.4l0.2-0.4l0.2,0.4H400.3z M427.5,2162.8l0.2,0.4h-0.4L427.5,2162.8z M427.3,2256.7l0.2-0.4
	l0.2,0.4L427.3,2256.7z M454.3,2209.9l0.2-0.4l0.2,0.4H454.3z M454.3,2116.5l0.2-0.4l0.2,0.4H454.3z M481.3,2163.2l0.2-0.4l0.2,0.4
	H481.3z M481.3,2069.7l0.2-0.4l0.2,0.4H481.3z M508.3,2116.5l0.2-0.4l0.2,0.4H508.3z M508.3,2023l0.2-0.4l0.2,0.4H508.3z
	 M535.3,2069.7l0.2-0.4l0.2,0.4H535.3z M535.3,1976.3l0.2-0.4l0.2,0.4H535.3z M562.3,2023l0.2-0.4l0.2,0.4H562.3z M562.3,1929.6
	l0.2-0.4l0.2,0.4H562.3z M589.3,1976.3l0.2-0.4l0.2,0.4H589.3z M589.3,1882.8l0.2-0.4l0.2,0.4H589.3z M616.3,1929.6l0.2-0.4l0.2,0.4
	H616.3z M616.3,1836.1l0.2-0.4l0.2,0.4H616.3z M670.4,1835.7l0.2,0.4h-0.4L670.4,1835.7z M643.1,1976.3l0.2-0.4l0.2,0.4H643.1z
	 M643.1,1882.8l0.2-0.4l0.2,0.4H643.1z M643.1,1789.3l0.2-0.4l0.2,0.4H643.1z M670.1,1929.5l0.2-0.4l0.2,0.4H670.1z M697.1,1976.3
	l0.2-0.4l0.2,0.4H697.1z M697.1,1882.8l0.2-0.4l0.2,0.4H697.1z M751.3,1975.9l0.2,0.4h-0.4L751.3,1975.9z M724.1,2023l0.2-0.4
	l0.2,0.4H724.1z M724.1,1929.5l0.2-0.4l0.2,0.4H724.1z M751.1,2069.7l0.2-0.4l0.2,0.4H751.1z M778.1,2116.5l0.2-0.4l0.2,0.4H778.1z
	 M778.1,2023l0.2-0.4l0.2,0.4H778.1z M805.1,2163.2l0.2-0.4l0.2,0.4H805.1z M805.1,2069.7l0.2-0.4l0.2,0.4H805.1z M832.1,2209.9
	l0.2-0.4l0.2,0.4H832.1z M832.1,2116.5l0.2-0.4l0.2,0.4H832.1z M859.1,2256.7l0.2-0.4l0.2,0.4H859.1z M859.1,2163.2l0.2-0.4l0.2,0.4
	H859.1z M886.1,2303.4l0.2-0.4l0.2,0.4H886.1z M886.1,2209.9l0.2-0.4l0.2,0.4H886.1z M913.1,2350.1l0.2-0.4l0.2,0.4H913.1z
	 M913.1,2256.7l0.2-0.4l0.2,0.4H913.1z M940.1,2396.8l0.2-0.4l0.2,0.4H940.1z M940.1,2303.4l0.2-0.4l0.2,0.4H940.1z M967.1,2443.6
	l0.2-0.4l0.2,0.4H967.1z M967.1,2350.1l0.2-0.4l0.2,0.4H967.1z M994.1,2396.8l0.2-0.4l0.2,0.4H994.1z M1021.1,2443.6l0.2-0.4
	l0.2,0.4H1021.1z"/>
<polygon class="st0" points="939.9,1836.1 886.4,1836.1 885.9,1836.1 832.4,1836.1 859.2,1882.4 859.4,1882.8 912.9,1882.8 
	913.1,1882.4 913.4,1882.8 966.9,1882.8 967.1,1882.4 967.3,1882.8 1020.8,1882.8 1021.1,1882.4 994.3,1836.1 993.9,1836.1 
	940.3,1836.1 "/>
<polygon class="st0" points="805.4,1789.4 859,1789.4 859.2,1789 859.4,1789.4 912.9,1789.4 913.1,1789 913.4,1789.4 966.9,1789.4 
	967.1,1789 940.3,1742.6 939.9,1742.6 886.4,1742.6 885.9,1742.6 832.4,1742.6 832,1742.6 778.5,1742.6 805.2,1789 "/>
<g>
	<path class="st0" d="M2001.2,1879.4h-300.8l-70.3,496.6h321.3l-32,89h-350.7l-33.8-40l83.7-594.5l45.4-40h369.3L2001.2,1879.4z"/>
	<path class="st0" d="M2576.2,1878.5h-321.3l-28.5,204.7h281.2l33.8,39.2l-42.7,302.6l-44.5,40h-389.8l32-89h320.4l29.4-204.7H2165
		l-34.7-39.2l43.6-302.6l44.5-39.2h389.8L2576.2,1878.5z"/>
	<path class="st0" d="M2753.3,2492.6h-93.5l90.8-355.1l47.2-333.7l81.9,82.8l-35.6,251L2753.3,2492.6z M3321.1,2201.5l1.8-10.7
		l102.4-62.3l-28.5,200.2h-213.6l-3.6,26.7l-59.6,21.4h80.1l-8,57.8h227.8l-23.1,57.9h-306.2l15.1-110.4l-304.4,110.4l10.7-74.8
		l256.3-89H2990l-10.7-57.8h118.4l3.6-24.9h-120.1l-11.6,82.8h-93.5l29.4-210h193.1l8-18.7h93.4l-8,18.7h222.5l-96.1,57.8h-113.9
		l-3.6,24.9H3321.1z M3200.9,1792.1h308.8l-32,83.7h-586.5l-81.9-83.7h299l4.5-30.3h92.6L3200.9,1792.1z M3184,1927.4l-24,67.6h-16
		l18.7,88.1h-63.2l-18.7-88.1l-12.5,88.1h-93.5l12.5-88.1l-42.7,88.1h-63.2l42.7-88.1H2893l24.9-67.6h79.2l3.6-24h92.6l-2.7,24H3184
		z M2990.9,2176.6l-3.6,24.9h120.2l3.6-24.9H2990.9z M3491.1,1927.4l-24,67.6h-16l17.8,88.1h-63.2l-17.8-88.1h-0.9l-12.5,88.1h-92.6
		l12.5-88.1h-2.7l-40.9,88.1h-63.2l42.7-88.1H3200l24-67.6h79.2l3.6-24h93.4l-3.6,24H3491.1z M3320.2,2205.1l-25.8,40.9h-99.7
		l-3.6,24.9h120.1L3320.2,2205.1z M3253.4,2345.7h57.8l-12.5,33.8h46.3l-2.7-20.5h49.8l5.3,57h-170.9L3253.4,2345.7z"/>
	<path class="st0" d="M3639.7,1971h104.1l54.3,168.2L3670,2493.5h-103.2l128.2-354.2L3639.7,1971z M3669.1,1762.8h104.1l54.3,167.3
		h-103.2L3669.1,1762.8z M3861.3,2066.3h202l16.9-124.6h-195.8l33.8-93.5h175.3l12.5-86.3h92.6l-11.6,86.3h195.8l-33.8,93.5h-175.3
		l-17.8,124.6h222.5l-33.8,93.4h-321.3l-132.6,333.8h-93.5l133.5-333.8h-103.2L3861.3,2066.3z M3907.6,2493.5l36.5-93.4h253.7
		l-17.8-152.2h92.6l29.4,245.6H3907.6z"/>
	<path class="st0" d="M4535.9,2493.5l39.2-275.9l-98.8,67.6l14.2-105l197.6-137.1l3.6-24h-178l33.8-92.6h250.1l-21.4,151.3
		l-73.9,50.7l59.6,51.6l-14.2,105l-80.1-67.6l-38.3,275.9H4535.9z M4577.8,1855.3l13.3-93.5l182.5,41.8l-13.3,93.5L4577.8,1855.3z
		 M5020.1,2400h191.3l-33.8,93.4h-455.7l33.8-93.4h170.9l49-348h-170.9l33.8-93.4h150.4l27.6-196.7h93.5l-27.6,196.7h170.9
		l-33.8,93.4H5069L5020.1,2400z"/>
</g>
<path d="M1345,991.3h-0.4l0.2-0.4l-26.8-46.4h-0.4l0.2-0.4l-26.8-46.4h-0.4l0.2-0.4l-26.8-46.3h-0.5l0.2-0.4l-26.8-46.3h-161.9
	l26.8,46.3l0.2,0.4l26.8,46.3l0.2,0.4l26.8,46.3l0.2,0.4l26.8,46.3l0.2,0.4l26.8,46.3l0.2,0.4h53.5l0.2-0.4l0.2,0.4h53.5l0.2-0.4
	l0.2,0.4h53.5l0.2-0.4L1345,991.3z M1155.7,851.2l0.2-0.4l0.2,0.4H1155.7z M1182.7,897.9l0.2-0.4l0.2,0.4H1182.7z M1236.9,897.5
	l0.2,0.4h-0.4L1236.9,897.5z M1209.9,850.8l0.2,0.4h-0.4L1209.9,850.8z M1209.7,944.6l0.2-0.4l0.2,0.4H1209.7z M1236.7,991.3
	l0.2-0.4l0.2,0.4H1236.7z M1263.7,944.6l0.2-0.4l0.2,0.4H1263.7z M1290.7,991.3l0.2-0.4l0.2,0.4H1290.7z"/>
<path d="M1074.8,617.5H967.3l26.8,46.3l0.2,0.4l26.8,46.3l0.2,0.4l26.8,46.3l0.2,0.4h53.5l0.2-0.4l0.2,0.4h53.5l0.2-0.4l0.2,0.4
	h53.5l0.2-0.4l-26.8-46.3h-0.4l0.2-0.4l-26.8-46.3h-0.4l0.2-0.4l-26.8-46.3L1074.8,617.5L1074.8,617.5z M1047.8,664.2l0.2-0.4
	l0.2,0.4H1047.8z M1074.8,710.9l0.2-0.4l0.2,0.4H1074.8z M1129,710.6l0.2,0.4h-0.4L1129,710.6z M1102,663.8l0.2,0.4h-0.4L1102,663.8
	z"/>
<path d="M993.9,477.3H886.4l26.8,46.3l0.2,0.4l26.8,46.3l0.2,0.4h53.5l0.2-0.4l0.2,0.4h53.5l0.2-0.4l0.2,0.4h53.5l0.2-0.4
	l-26.8-46.4h-0.4l0.2-0.4l-26.8-46.3L993.9,477.3L993.9,477.3z M966.9,524l0.2-0.4l0.2,0.4H966.9z M1021,523.7l0.2,0.4h-0.4
	L1021,523.7z"/>
<path d="M1074.8,991.3l0.2-0.4l-26.8-46.4h-0.4l0.2-0.4l-26.8-46.4h-0.4l0.2-0.4l-26.8-46.3h-0.5l0.2-0.4l-26.8-46.4h-0.4l0.2-0.4
	l-26.8-46.4h-0.4l0.2-0.4L913.4,711h-0.4l0.2-0.4l-26.8-46.3h-0.4l0.2-0.4l-26.8-46.3H859l0.2-0.4l-26.8-46.3H832l0.2-0.4L805.4,524
	H805l0.2-0.4l-26.7-46.3H778l0.2-0.4l-26.8-46.4H751l0.2-0.4l-26.8-46.4h-0.4l0.2-0.4l-26.8-46.3H697l0.2-0.4l-26.8-46.4h-54.4
	l-26.7,46.4l0.2,0.4h-0.4l-26.8,46.4l0.2,0.4h-0.4l-26.8,46.3l0.2,0.4h-0.4l-26.7,46.3l0.2,0.4h-0.5l-26.8,46.3l0.2,0.4h-0.4
	l-26.8,46.4l0.2,0.4h-0.4l-26.8,46.3l0.2,0.4h-0.5l-26.8,46.4l0.2,0.4h-0.4l-26.8,46.3l0.2,0.4h-0.4l-26.8,46.3l0.2,0.4h-0.4
	L319.6,804l0.2,0.4h-0.5l-26.8,46.3l0.2,0.4h-0.5l-26.8,46.4l0.2,0.4h-0.4l-26.8,46.3l0.2,0.4h-0.4L211.7,991l0.2,0.4h-0.4
	l-26.8,46.3l0.2,0.4h53.5l0.2-0.4l0.2,0.4h53.5l0.2-0.4l0.2,0.4h53.5l0.2-0.4l26.8-46.3l0.2-0.4l26.8-46.3l0.2-0.4l26.7-46.3
	l0.2-0.4l26.8-46.3l0.2-0.4l26.8-46.3l0.2-0.5l26.8-46.3l0.2-0.4l26.7-46.3l0.2-0.4l26.8-46.3l0.2-0.4l26.8-46.3l0.2-0.4l26.8-46.3
	l0.2-0.4l0.2,0.4h53.5l0.2-0.4l0.2,0.4l26.8,46.4l0.2,0.4l26.8,46.3l0.2,0.4l26.8,46.3l0.2,0.4l26.8,46.3l0.2,0.4l26.7,46.3l0.2,0.4
	l26.8,46.3l0.2,0.4l26.8,46.3l0.2,0.4l26.8,46.4l0.2,0.4l26.8,46.4l0.2,0.4l26.8,46.3l0.2,0.4h53.5l0.2-0.4l0.2,0.4h53.5l0.2-0.4
	l0.2,0.4h53.5l0.2-0.4l-26.8-46.3L1074.8,991.3z M265.4,991.3l0.2-0.4l0.2,0.4H265.4z M292.4,944.6l0.2-0.4l0.2,0.4H292.4z
	 M319.4,991.3l0.2-0.4l0.2,0.4H319.4z M319.4,897.9l0.2-0.4l0.2,0.4H319.4z M346.4,944.6l0.2-0.4l0.2,0.4H346.4z M346.4,851.1
	l0.2-0.4l0.2,0.4H346.4z M373.4,897.9l0.2-0.4l0.2,0.4H373.4z M373.4,804.4l0.2-0.4l0.2,0.4H373.4z M400.5,757.3l0.2,0.4h-0.4
	L400.5,757.3z M400.3,851.1l0.2-0.4l0.2,0.4H400.3z M427.5,710.6l0.2,0.4h-0.4L427.5,710.6z M427.3,804.4l0.2-0.4l0.2,0.4
	L427.3,804.4z M454.3,757.7l0.2-0.4l0.2,0.4H454.3z M454.3,664.2l0.2-0.4l0.2,0.4H454.3z M481.3,710.9l0.2-0.4l0.2,0.4H481.3z
	 M481.3,617.5l0.2-0.4l0.2,0.4H481.3z M508.3,664.2l0.2-0.4l0.2,0.4H508.3z M508.3,570.8l0.2-0.4l0.2,0.4H508.3z M535.3,617.5
	l0.2-0.4l0.2,0.4H535.3z M535.3,524l0.2-0.4l0.2,0.4H535.3z M562.3,570.8l0.2-0.4l0.2,0.4H562.3z M562.3,477.3l0.2-0.4l0.2,0.4
	H562.3z M589.3,524l0.2-0.4l0.2,0.4H589.3z M589.3,430.6l0.2-0.4l0.2,0.4H589.3z M616.3,477.3l0.2-0.4l0.2,0.4H616.3z M616.3,383.8
	l0.2-0.4l0.2,0.4H616.3z M670.4,383.5l0.2,0.4h-0.4L670.4,383.5z M643.1,524l0.2-0.4l0.2,0.4H643.1z M643.1,430.6l0.2-0.4l0.2,0.4
	H643.1z M643.1,337.1l0.2-0.4l0.2,0.4H643.1z M670.1,477.3l0.2-0.4l0.2,0.4H670.1z M697.1,524l0.2-0.4l0.2,0.4H697.1z M697.1,430.6
	l0.2-0.4l0.2,0.4H697.1z M751.3,523.6l0.2,0.4h-0.4L751.3,523.6z M724.1,570.7l0.2-0.4l0.2,0.4H724.1z M724.1,477.3l0.2-0.4l0.2,0.4
	H724.1z M751.1,617.5l0.2-0.4l0.2,0.4H751.1z M778.1,664.2l0.2-0.4l0.2,0.4H778.1z M778.1,570.7l0.2-0.4l0.2,0.4H778.1z
	 M805.1,710.9l0.2-0.4l0.2,0.4H805.1z M805.1,617.5l0.2-0.4l0.2,0.4H805.1z M832.1,757.7l0.2-0.4l0.2,0.4H832.1z M832.1,664.2
	l0.2-0.4l0.2,0.4H832.1z M859.1,804.4l0.2-0.4l0.2,0.4H859.1z M859.1,710.9l0.2-0.4l0.2,0.4H859.1z M886.1,851.1l0.2-0.4l0.2,0.4
	H886.1z M886.1,757.7l0.2-0.4l0.2,0.4H886.1z M913.1,897.8l0.2-0.4l0.2,0.4H913.1z M913.1,804.4l0.2-0.4l0.2,0.4H913.1z
	 M940.1,944.6l0.2-0.4l0.2,0.4H940.1z M940.1,851.1l0.2-0.4l0.2,0.4H940.1z M967.1,991.3l0.2-0.4l0.2,0.4H967.1z M967.1,897.8
	l0.2-0.4l0.2,0.4H967.1z M994.1,944.6l0.2-0.4l0.2,0.4H994.1z M1021.1,991.3l0.2-0.4l0.2,0.4H1021.1z"/>
<polygon points="939.9,383.8 886.4,383.8 885.9,383.8 832.4,383.8 859.2,430.2 859.4,430.6 912.9,430.6 913.1,430.2 913.4,430.6 
	966.9,430.6 967.1,430.2 967.3,430.6 1020.8,430.6 1021.1,430.2 994.3,383.8 993.9,383.8 940.3,383.8 "/>
<polygon points="805.4,337.1 859,337.1 859.2,336.7 859.4,337.1 912.9,337.1 913.1,336.7 913.4,337.1 966.9,337.1 967.1,336.7 
	940.3,290.4 939.9,290.4 886.4,290.4 885.9,290.4 832.4,290.4 832,290.4 778.5,290.4 805.2,336.7 "/>
<g>
	<path d="M2001.2,427.1h-300.8l-70.3,496.6h321.3l-32,89h-350.7l-33.8-40l83.7-594.5l45.4-40h369.3L2001.2,427.1z"/>
	<path d="M2576.2,426.2h-321.3l-28.5,204.7h281.2l33.8,39.2l-42.7,302.6l-44.5,40h-389.8l32-89h320.4l29.4-204.7H2165l-34.7-39.2
		l43.6-302.6l44.5-39.2h389.8L2576.2,426.2z"/>
	<path d="M2753.3,1040.3h-93.5l90.8-355.1l47.2-333.8l81.9,82.8l-35.6,251L2753.3,1040.3z M3321.1,749.3l1.8-10.7l102.4-62.3
		l-28.5,200.2h-213.6l-3.6,26.7l-59.6,21.4h80.1l-8,57.8h227.8l-23.1,57.9h-306.2l15.1-110.4l-304.4,110.4l10.7-74.8l256.3-89H2990
		l-10.7-57.8h118.4l3.6-24.9h-120.1l-11.6,82.8h-93.5l29.4-210h193.1l8-18.7h93.4l-8,18.7h222.5l-96.1,57.9h-113.9l-3.6,24.9H3321.1
		z M3200.9,339.9h308.8l-32,83.7h-586.5l-81.9-83.7h299l4.5-30.3h92.6L3200.9,339.9z M3184,475.2l-24,67.6h-16l18.7,88.1h-63.2
		l-18.7-88.1l-12.5,88.1h-93.5l12.5-88.1l-42.7,88.1h-63.2l42.7-88.1H2893l24.9-67.6h79.2l3.6-24h92.6l-2.7,24H3184z M2990.9,724.4
		l-3.6,24.9h120.2l3.6-24.9H2990.9z M3491.1,475.2l-24,67.6h-16l17.8,88.1h-63.2l-17.8-88.1h-0.9l-12.5,88.1h-92.6l12.5-88.1h-2.7
		l-40.9,88.1h-63.2l42.7-88.1H3200l24-67.6h79.2l3.6-24h93.4l-3.6,24H3491.1z M3320.2,752.8l-25.8,40.9h-99.7l-3.6,24.9h120.1
		L3320.2,752.8z M3253.4,893.5h57.8l-12.5,33.8h46.3l-2.7-20.5h49.8l5.3,57h-170.9L3253.4,893.5z"/>
	<path d="M3639.7,518.8h104.1l54.3,168.2L3670,1041.2h-103.2L3694.9,687L3639.7,518.8z M3669.1,310.5h104.1l54.3,167.3h-103.2
		L3669.1,310.5z M3861.3,614h202l16.9-124.6h-195.8l33.8-93.5h175.3l12.5-86.3h92.6l-11.6,86.3h195.8l-33.8,93.5h-175.3L4155.9,614
		h222.5l-33.8,93.5h-321.3l-132.6,333.7h-93.5l133.5-333.7h-103.2L3861.3,614z M3907.6,1041.2l36.5-93.5h253.7l-17.8-152.2h92.6
		l29.4,245.6H3907.6z"/>
	<path d="M4535.9,1041.2l39.2-275.9l-98.8,67.6l14.2-105l197.6-137.1l3.6-24h-178l33.8-92.6h250.1l-21.4,151.3l-73.9,50.7l59.6,51.6
		l-14.2,105l-80.1-67.6l-38.3,275.9H4535.9z M4577.8,403.1l13.3-93.5l182.5,41.8l-13.3,93.5L4577.8,403.1z M5020.1,947.7h191.3
		l-33.8,93.5h-455.7l33.8-93.5h170.9l49-348h-170.9l33.8-93.4h150.4l27.6-196.7h93.5l-27.6,196.7h170.9l-33.8,93.4H5069
		L5020.1,947.7z"/>
</g>
</svg>
