<svg  viewBox="0 0 258 53" fill="currentColor" xmlns="http://www.w3.org/2000/svg">
<g clip-path="url(#clip0_9_432)">
<path fill-rule="evenodd" clip-rule="evenodd" d="M52.2744 96.7809C76.8511 96.7809 96.7744 76.8576 96.7744 52.2809C96.7744 27.7043 76.8511 7.78094 52.2744 7.78094C27.6977 7.78094 7.77441 27.7043 7.77441 52.2809C7.77441 76.8576 27.6977 96.7809 52.2744 96.7809ZM52.2744 92.3309C74.3934 92.3309 92.3244 74.3999 92.3244 52.2809C92.3244 30.1619 74.3934 12.2309 52.2744 12.2309C30.1554 12.2309 12.2244 30.1619 12.2244 52.2809C12.2244 74.3999 30.1554 92.3309 52.2744 92.3309Z" fill="#FC4A55"/>
<path fill-rule="evenodd" clip-rule="evenodd" d="M52.2744 92.331C74.3934 92.331 92.3244 74.4 92.3244 52.281C92.3244 30.162 74.3934 12.231 52.2744 12.231C30.1554 12.231 12.2244 30.162 12.2244 52.281C12.2244 74.4 30.1554 92.331 52.2744 92.331ZM52.2744 87.881C71.9357 87.881 87.8744 71.9423 87.8744 52.281C87.8744 32.6196 71.9357 16.681 52.2744 16.681C32.6131 16.681 16.6744 32.6196 16.6744 52.281C16.6744 71.9423 32.6131 87.881 52.2744 87.881Z" fill="#FFB045"/>
<path fill-rule="evenodd" clip-rule="evenodd" d="M52.2744 87.8809C71.9357 87.8809 87.8744 71.9423 87.8744 52.2809C87.8744 32.6196 71.9357 16.6809 52.2744 16.6809C32.6131 16.6809 16.6744 32.6196 16.6744 52.2809C16.6744 71.9423 32.6131 87.8809 52.2744 87.8809ZM52.2744 83.4309C69.4781 83.4309 83.4244 69.4846 83.4244 52.2809C83.4244 35.0773 69.4781 21.1309 52.2744 21.1309C35.0707 21.1309 21.1244 35.0773 21.1244 52.2809C21.1244 69.4846 35.0707 83.4309 52.2744 83.4309Z" fill="#FFFA6D"/>
<path fill-rule="evenodd" clip-rule="evenodd" d="M52.2744 78.9809C67.0204 78.9809 78.9744 67.0269 78.9744 52.2809C78.9744 37.5349 67.0204 25.5809 52.2744 25.5809C37.5284 25.5809 25.5744 37.5349 25.5744 52.2809C25.5744 67.0269 37.5284 78.9809 52.2744 78.9809ZM52.2744 74.5309C64.5628 74.5309 74.5244 64.5693 74.5244 52.2809C74.5244 39.9926 64.5628 30.0309 52.2744 30.0309C39.9861 30.0309 30.0244 39.9926 30.0244 52.2809C30.0244 64.5693 39.9861 74.5309 52.2744 74.5309Z" fill="#3BA9FE"/>
<path fill-rule="evenodd" clip-rule="evenodd" d="M52.2744 74.5309C64.5627 74.5309 74.5244 64.5693 74.5244 52.2809C74.5244 39.9926 64.5627 30.0309 52.2744 30.0309C39.9861 30.0309 30.0244 39.9926 30.0244 52.2809C30.0244 64.5693 39.9861 74.5309 52.2744 74.5309ZM52.2744 70.0809C62.1051 70.0809 70.0744 62.1116 70.0744 52.2809C70.0744 42.4503 62.1051 34.4809 52.2744 34.4809C42.4437 34.4809 34.4744 42.4503 34.4744 52.2809C34.4744 62.1116 42.4437 70.0809 52.2744 70.0809Z" fill="#965DED"/>
<path fill-rule="evenodd" clip-rule="evenodd" d="M52.2744 83.431C69.4781 83.431 83.4244 69.4846 83.4244 52.281C83.4244 35.0773 69.4781 21.131 52.2744 21.131C35.0708 21.131 21.1244 35.0773 21.1244 52.281C21.1244 69.4846 35.0708 83.431 52.2744 83.431ZM52.2744 78.981C67.0204 78.981 78.9744 67.027 78.9744 52.281C78.9744 37.5349 67.0204 25.581 52.2744 25.581C37.5284 25.581 25.5744 37.5349 25.5744 52.281C25.5744 67.027 37.5284 78.981 52.2744 78.981Z" fill="#30FD2F"/>
<path d="M10.9898 7.13561C11.0809 6.862 11.4679 6.862 11.559 7.13562L12.4464 9.80008C12.474 9.88288 12.5362 9.94957 12.6169 9.98276L15.0996 11.0035C15.3475 11.1054 15.3475 11.4565 15.0996 11.5584L12.6169 12.5791C12.5362 12.6123 12.474 12.679 12.4464 12.7618L11.559 15.4263C11.4679 15.6999 11.0809 15.6999 10.9898 15.4263L10.1024 12.7618C10.0749 12.679 10.0126 12.6123 9.93188 12.5791L7.44926 11.5584C7.20137 11.4565 7.20137 11.1054 7.44926 11.0035L9.93188 9.98276C10.0126 9.94957 10.0749 9.88288 10.1024 9.80008L10.9898 7.13561Z" />
<path d="M5.98773 21.2106C6.07473 20.9285 6.4741 20.9285 6.56109 21.2106L6.90943 22.3403C6.93498 22.4231 6.99512 22.4909 7.07436 22.5261L8.15694 23.0068C8.39461 23.1123 8.3946 23.4496 8.15694 23.5551L7.07436 24.0358C6.99512 24.071 6.93498 24.1388 6.90943 24.2216L6.56109 25.3513C6.4741 25.6334 6.07473 25.6334 5.98773 25.3513L5.6394 24.2216C5.61385 24.1388 5.55371 24.071 5.47447 24.0358L4.39189 23.5551C4.15422 23.4496 4.15422 23.1123 4.39189 23.0068L5.47447 22.5261C5.55371 22.4909 5.61385 22.4231 5.6394 22.3403L5.98773 21.2106Z" />
</g>
<path d="M70.2329 43.7809L66.7386 14.69H73.4573L74.9346 34.9031H75.1761L83.8266 14.69H89.5795L91.5397 34.9457H91.7954L99.9488 14.69H106.668L93.5141 43.7809H87.5198L85.1619 24.7611H84.9346L76.2272 43.7809H70.2329ZM108.837 44.1929C107.455 44.1929 106.257 43.9514 105.244 43.4684C104.24 42.976 103.501 42.2469 103.028 41.2809C102.554 40.315 102.436 39.1171 102.673 37.6872C102.881 36.4751 103.274 35.4618 103.851 34.6474C104.439 33.8236 105.154 33.1607 105.996 32.6588C106.839 32.1569 107.772 31.7734 108.795 31.5082C109.827 31.2431 110.892 31.0631 111.991 30.9684C113.26 30.8359 114.292 30.708 115.087 30.5849C115.892 30.4618 116.494 30.2866 116.891 30.0594C117.289 29.8226 117.53 29.4722 117.616 29.0082V28.923C117.758 28.0328 117.592 27.3416 117.119 26.8491C116.655 26.3472 115.911 26.0963 114.888 26.0963C113.809 26.0963 112.89 26.333 112.133 26.8065C111.385 27.28 110.85 27.8813 110.528 28.6105L105.016 28.1559C105.509 26.8302 106.252 25.6844 107.246 24.7184C108.25 23.7431 109.458 22.995 110.869 22.4741C112.28 21.9438 113.861 21.6787 115.613 21.6787C116.825 21.6787 117.957 21.8207 119.008 22.1048C120.068 22.3889 120.982 22.8292 121.749 23.4258C122.526 24.0224 123.084 24.7895 123.425 25.727C123.776 26.655 123.847 27.7677 123.638 29.065L121.181 43.7809H115.442L115.954 40.7554H115.783C115.319 41.4372 114.751 42.0385 114.079 42.5594C113.406 43.0707 112.635 43.4732 111.763 43.7667C110.892 44.0508 109.917 44.1929 108.837 44.1929ZM111.266 40.0167C112.147 40.0167 112.957 39.8416 113.695 39.4912C114.443 39.1313 115.059 38.6484 115.542 38.0423C116.034 37.4362 116.347 36.7497 116.479 35.9826L116.849 33.6673C116.659 33.7904 116.385 33.8993 116.025 33.994C115.674 34.0887 115.291 34.1787 114.874 34.2639C114.467 34.3397 114.055 34.4107 113.638 34.477C113.222 34.5338 112.848 34.5906 112.516 34.6474C111.787 34.7516 111.134 34.9173 110.556 35.1446C109.978 35.3719 109.51 35.6796 109.15 36.0679C108.79 36.4467 108.567 36.9201 108.482 37.4883C108.35 38.3122 108.544 38.9419 109.065 39.3775C109.595 39.8037 110.329 40.0167 111.266 40.0167ZM127.495 51.9628C126.718 51.9628 126.008 51.9012 125.364 51.7781C124.72 51.6645 124.19 51.5177 123.773 51.3378L125.904 46.8207C126.576 47.0385 127.187 47.1522 127.736 47.1616C128.295 47.1711 128.807 47.0291 129.271 46.7355C129.735 46.4419 130.161 45.959 130.549 45.2866L131.089 44.3633L126.998 21.9628H133.134L134.981 38.0139H135.208L142.438 21.9628H149.072L136.586 46.1389C135.97 47.3226 135.241 48.3501 134.398 49.2213C133.565 50.0925 132.575 50.7648 131.43 51.2383C130.293 51.7213 128.982 51.9628 127.495 51.9628ZM163.773 21.9628L163.021 26.5082H149.867L150.634 21.9628H163.773ZM154.469 16.7355H160.521L157.14 37.0764C157.045 37.6351 157.059 38.0707 157.182 38.3832C157.306 38.6862 157.509 38.8993 157.793 39.0224C158.087 39.1455 158.437 39.2071 158.844 39.2071C159.128 39.2071 159.417 39.1834 159.711 39.1361C160.004 39.0792 160.227 39.0366 160.378 39.0082L160.606 43.5111C160.265 43.6152 159.806 43.7289 159.228 43.852C158.66 43.9751 157.987 44.0508 157.211 44.0792C155.734 44.1361 154.484 43.9419 153.461 43.4969C152.438 43.0423 151.704 42.3463 151.259 41.4088C150.814 40.4713 150.719 39.2923 150.975 37.8719L154.469 16.7355ZM173.731 44.2071C171.505 44.2071 169.664 43.7336 168.205 42.7866C166.747 41.8302 165.719 40.5044 165.123 38.8094C164.536 37.1048 164.427 35.1209 164.796 32.8576C165.156 30.6228 165.904 28.6673 167.04 26.9912C168.177 25.315 169.621 24.013 171.373 23.0849C173.125 22.1474 175.099 21.6787 177.296 21.6787C179.512 21.6787 181.349 22.1569 182.807 23.1133C184.266 24.0603 185.293 25.3861 185.89 27.0906C186.486 28.7951 186.6 30.7791 186.231 33.0423C185.861 35.2677 185.104 37.2184 183.958 38.8946C182.812 40.5707 181.368 41.8775 179.626 42.815C177.883 43.7431 175.918 44.2071 173.731 44.2071ZM174.327 39.5196C175.35 39.5196 176.254 39.2308 177.04 38.6531C177.836 38.066 178.494 37.2705 179.015 36.2667C179.545 35.2535 179.914 34.1076 180.123 32.8292C180.331 31.5698 180.345 30.4523 180.165 29.477C179.985 28.4921 179.607 27.7156 179.029 27.1474C178.461 26.5792 177.68 26.2951 176.685 26.2951C175.663 26.2951 174.753 26.5887 173.958 27.1758C173.163 27.7535 172.504 28.5489 171.984 29.5622C171.463 30.5755 171.098 31.726 170.89 33.0139C170.691 34.2639 170.677 35.3813 170.847 36.3662C171.018 37.3416 171.392 38.1133 171.969 38.6815C172.547 39.2402 173.333 39.5196 174.327 39.5196ZM192.136 43.7809H185.545L200.418 14.69H208.344L213.543 43.7809H206.952L203.415 21.3378H203.187L192.136 43.7809ZM193.642 32.3463H209.21L208.386 37.1474H192.818L193.642 32.3463ZM238.234 24.0934C238.158 23.4022 237.997 22.7914 237.751 22.2611C237.514 21.7213 237.187 21.2667 236.771 20.8974C236.354 20.5186 235.847 20.2298 235.251 20.0309C234.654 19.8321 233.963 19.7326 233.177 19.7326C231.69 19.7326 230.298 20.102 229.001 20.8406C227.713 21.5792 226.614 22.654 225.705 24.065C224.796 25.4665 224.176 27.1806 223.844 29.2071C223.503 31.2336 223.503 32.9571 223.844 34.3775C224.195 35.798 224.853 36.8823 225.819 37.6304C226.794 38.369 228.049 38.7383 229.583 38.7383C230.975 38.7383 232.225 38.4921 233.333 37.9997C234.441 37.4978 235.345 36.7923 236.046 35.8832C236.756 34.9741 237.211 33.8993 237.41 32.6588L238.631 32.8434H231.146L231.913 28.2128H244.086L243.461 31.8775C243.054 34.4344 242.159 36.6313 240.776 38.4684C239.394 40.3056 237.67 41.7166 235.606 42.7014C233.551 43.6862 231.297 44.1787 228.844 44.1787C226.117 44.1787 223.821 43.5773 221.955 42.3747C220.099 41.1626 218.778 39.4438 217.992 37.2184C217.216 34.9836 217.078 32.3321 217.58 29.2639C217.968 26.9059 218.66 24.8037 219.654 22.9571C220.658 21.101 221.884 19.5291 223.333 18.2412C224.782 16.9533 226.387 15.9732 228.148 15.3008C229.919 14.6285 231.761 14.2923 233.674 14.2923C235.322 14.2923 236.813 14.5338 238.148 15.0167C239.493 15.4902 240.644 16.1626 241.6 17.0338C242.566 17.905 243.295 18.9419 243.788 20.1446C244.289 21.3378 244.521 22.654 244.484 24.0934H238.234ZM257.087 14.69L252.257 43.7809H246.106L250.936 14.69H257.087Z" />
<defs>
<clipPath id="clip0_9_432">
<rect x="0.774414" y="0.780945" width="50" height="50" rx="8" fill="white"/>
</clipPath>
</defs>
</svg>
