<?xml version="1.0" encoding="utf-8"?>
<!-- Generator: Adobe Illustrator 26.0.3, SVG Export Plug-In . SVG Version: 6.00 Build 0)  -->
<svg version="1.0" id="emoji" xmlns="http://www.w3.org/2000/svg" xmlns:xlink="http://www.w3.org/1999/xlink" x="0px" y="0px"
	 viewBox="0 0 104.5 78.1" style="enable-background:new 0 0 104.5 78.1;" xml:space="preserve">
<style type="text/css">
	.st0{fill:#FCEA2B;}
	.st1{fill:#FFFFFF;}
	.st2{fill:#EA5A47;}
	.st3{fill:#92D3F5;}
	.st4{fill:none;stroke:#000000;stroke-width:2;stroke-linecap:round;stroke-linejoin:round;}
	.st5{fill:none;stroke:#000000;stroke-width:2;stroke-linejoin:round;}
</style>
<g id="color">
	<circle class="st0" cx="52.3" cy="39.1" r="24"/>
	<path class="st1" d="M67.8,37.6c0.7,1.4,1.1,2.9,1.2,4.4c-9.8,8.3-22.6,11.6-24.7,12.1c-1.1-1-2-2.2-2.7-3.5l0.1,0
		c0,0,14.9-3.4,25.9-12.8L67.8,37.6z"/>
	<path class="st2" d="M69.1,42c0.3,4.6-2.5,9.3-9,12.6c-6.6,3.3-12.1,2.6-15.6-0.4C46.4,53.7,59.2,50.3,69.1,42z"/>
	<path class="st3" d="M84,36c-0.7,2.2-3.1,3.4-5.4,2.7c0,0,0,0,0,0c-4-1.3-6.7-6.7-6.7-6.7c0.2-0.1,5.4-2.6,9.4-1.3
		C83.5,31.4,84.7,33.8,84,36C84,36,84,36,84,36L84,36z"/>
	<path class="st3" d="M30.7,62.5c-2.2-0.7-3.4-3.1-2.7-5.4c0,0,0,0,0,0c1.3-4,6.7-6.7,6.7-6.7c0.1,0.2,2.6,5.4,1.3,9.4
		C35.3,62,32.9,63.2,30.7,62.5C30.7,62.5,30.7,62.5,30.7,62.5L30.7,62.5z"/>
</g>
<g id="line">
	<path class="st4" d="M71.5,26.5c0,0-0.1-0.1-0.1-0.1c-7-10.6-21.3-13.5-31.9-6.5c-8.7,5.8-12.4,16.7-9.1,26.6
		c0,0.1,0.1,0.3,0.1,0.4"/>
	<path class="st4" d="M41.3,59.3c6.6,3.5,14.5,3.6,21.2,0.4c6.6-3.4,11.3-9.7,12.5-17"/>
	<path class="st4" d="M67.8,37.6c0.7,1.4,1.1,2.9,1.2,4.4c-9.8,8.3-22.6,11.6-24.7,12.1c-1.1-1-2-2.2-2.7-3.5l0.1,0
		c0,0,14.9-3.4,25.9-12.8L67.8,37.6z"/>
	<path class="st4" d="M69.1,42c0.3,4.6-2.5,9.3-9,12.6c-6.6,3.3-12.1,2.6-15.6-0.4C46.4,53.7,59.2,50.3,69.1,42z"/>
	<path class="st5" d="M84,36c-0.7,2.2-3.1,3.4-5.4,2.7c0,0,0,0,0,0c-4-1.3-6.7-6.7-6.7-6.7c0.2-0.1,5.4-2.6,9.4-1.3
		C83.5,31.4,84.7,33.8,84,36C84,36,84,36,84,36L84,36z"/>
	<path class="st5" d="M30.7,62.5c-2.2-0.7-3.4-3.1-2.7-5.4c0,0,0,0,0,0c1.3-4,6.7-6.7,6.7-6.7c0.1,0.2,2.6,5.4,1.3,9.4
		C35.3,62,32.9,63.2,30.7,62.5C30.7,62.5,30.7,62.5,30.7,62.5L30.7,62.5z"/>
	<polyline class="st4" points="38.7,36.2 46.4,36.9 42.2,43.1 	"/>
	<polyline class="st4" points="58.1,26.6 54,33.1 61.6,33.5 	"/>
</g>
</svg>
