<?xml version="1.0" encoding="utf-8"?>
<!-- Generator: Adobe Illustrator 24.0.1, SVG Export Plug-In . SVG Version: 6.00 Build 0)  -->
<svg version="1.1" id="图层_1" xmlns="http://www.w3.org/2000/svg" xmlns:xlink="http://www.w3.org/1999/xlink" x="0px"
     y="0px"
     viewBox="0 0 396.69 335.57" style="enable-background:new 0 0 396.69 335.57;" xml:space="preserve"
     fill="currentColor">
<path d="M247.45,217.94c-3.87-11.29-16.19-56.19-43.81-96.19c-27.61-40-78.97-77.68-125.16-104c0,0-4.26-3.42-9.42-0.97
	c-5.16,2.45-2.45,7.94-2.45,7.94s44.39,75.1,29.68,139.1c0,0-3.61,28.65-26.06,69.16l-2.65,4.19c0,0-2.65,2.9-0.97,6.45
	s6.32,5.81,11.42,1.74c5.1-4.06,32.19-22.71,72.45-25.55c0,0,19.1-2.84,64.52,7.74c0,0,16.77,4.65,20.9,5.94
	c4.13,1.29,7.23,3.55,10.71,1.35S251.32,229.23,247.45,217.94z M160.29,208.19c-32.52-0.52-54.97,7.48-73.55,17.55
	c0,0,27.1-47.23,25.03-92.9c-2.06-45.68-26.97-96.26-26.97-96.26s63.35,35.1,95.1,74.58c31.74,39.48,44.65,77.16,53.68,108.65
	C233.58,219.81,192.81,208.71,160.29,208.19z"/>
    <path d="M313.58,207.42C304.03,186,279,141.1,260.16,118.9c-18.84-22.19-42.58-40.26-42.58-40.26
	c-26.06-16.77-44.45-25.61-44.45-25.61c-6.39-3.35-9.48,1.03-9.48,1.03s-5.55,4.84,3.61,11.48c9.16,6.65,37.42,36.32,37.42,36.32
	c37.16,40.52,58.19,114.06,60.65,123.23c2.45,9.16,10.32,6.71,12.26,5.68c1.94-1.03,6.71-2.06,6.71-2.06
	c11.87-2.06,20.39,4.65,27.1,6.84c6.71,2.19,9.81-2.45,10.45-4.13C322.48,229.74,323.13,228.84,313.58,207.42z M276.42,218.26
	c0,0-21.94-76.13-69.42-131.61c0,0,57.03,32.77,97.29,132.13C304.29,218.77,283.39,212.84,276.42,218.26z"/>
    <path d="M380.52,310.06c-0.58-3-2.23-6-7.65-5.42c-5.42,0.58-9.68-2.42-13.94-5.9s-14.13-17.23-28.84-16.94
	c-14.71,0.29-18.97,6.19-24.77,11.52s-7.06,8.52-15.1,11.13c-8.03,2.61-15.1-3.1-16.16-4.45c0,0,36.16-19.03,52.29-30.26
	c16.13-11.23,23.1-16.77,28.26-20.9c0,0,1.61-0.95,1.47-4.82c-0.15-3.87-3.82-4.31-7.55-4.4c-3.73-0.1-301.66,19.94-301.66,19.94
	s-9.23-0.19-6.61,8.32l9.58,16.84c0,0-21.1,7.74-32.32,20.13c0,0-4.65,4.94-1.26,9.77c3.39,4.84,9,1.26,10.65-0.39
	c1.65-1.65,21.68-15.39,27.68-17.42c6-2.03,14.9-4.06,21.1,1.16c6.19,5.23,17.9,16.35,26.52,18.87c8.61,2.52,22.35-0.19,33.19-10.74
	c0,0,11.03-12.29,19.45-12.58c0,0,7.26-0.87,12.97,6.29c0,0,13.16,17.32,28.16,17.42c15,0.1,24.97-8.81,29.71-14.61
	s19.16-13.55,31.26-1.35c12.1,12.19,18.29,16.74,30.39,16.35c12.1-0.39,19.84-7.55,24.1-12.58c4.26-5.03,9.97-10.74,17.9-10.45
	c7.94,0.29,11.32,4.55,18.1,11.03c6.77,6.48,14.42,12.48,23.61,12.1S381.1,313.06,380.52,310.06z M241.71,281.35
	c-10.84,1.03-18.84,8.13-24,12.52c-5.16,4.39-10.71,11.35-18.45,11.87s-15.61-6.45-19.87-12.26c-4.26-5.81-12.9-12.26-23.74-12.26
	c-10.84,0-25.29,12.39-25.29,12.39s-8.9,11.35-20.39,11.1c-11.48-0.26-21.81-11.74-21.81-11.74s-13.29-12.52-25.94-10.71l-7.1-11.74
	l273.42-18.32c0,0-37.55,28.52-64.26,39.48C264.29,291.68,252.55,280.32,241.71,281.35z"/>
</svg>
