<?xml version="1.0" encoding="UTF-8"?>
<!DOCTYPE svg PUBLIC "-//W3C//DTD SVG 1.1//EN" "http://www.w3.org/Graphics/SVG/1.1/DTD/svg11.dtd">
<svg xmlns="http://www.w3.org/2000/svg" version="1.1" viewBox="0 0 500 500"  fill="currentColor" style="shape-rendering:geometricPrecision; text-rendering:geometricPrecision; image-rendering:optimizeQuality; fill-rule:evenodd; clip-rule:evenodd" xmlns:xlink="http://www.w3.org/1999/xlink">
<g><path style="opacity:0.954" d="M 250.5,66.5 C 265.734,65.4502 277.401,71.2835 285.5,84C 290.235,83.6521 294.901,82.6521 299.5,81C 314.602,78.3783 327.935,81.8783 339.5,91.5C 317.167,112.833 294.833,134.167 272.5,155.5C 271.124,146.79 271.29,138.123 273,129.5C 275.713,120.786 281.546,115.619 290.5,114C 293.259,111.426 292.926,109.26 289.5,107.5C 276.461,110.373 268.627,118.373 266,131.5C 264.175,141.567 264.175,151.567 266,161.5C 253.862,172.637 242.029,184.137 230.5,196C 229.5,196.667 228.5,196.667 227.5,196C 216.215,185.793 203.548,183.793 189.5,190C 186.967,192.084 186.967,194.084 189.5,196C 193.458,195.245 197.458,194.245 201.5,193C 210.372,192.01 217.706,194.844 223.5,201.5C 217.015,208.486 210.348,215.319 203.5,222C 194.388,218.968 185.055,216.301 175.5,214C 165.435,213.158 155.435,212.158 145.5,211C 141.778,208.055 139.778,204.222 139.5,199.5C 143.303,181.208 154.637,171.708 173.5,171C 174.022,170.439 174.355,169.772 174.5,169C 170.382,163.94 166.882,158.44 164,152.5C 155.873,125.257 164.707,105.757 190.5,94C 200.531,90.7871 210.531,90.9538 220.5,94.5C 221.5,94.1667 222.5,93.8333 223.5,93.5C 227.578,79.4221 236.578,70.4221 250.5,66.5 Z M 248.5,95.5 C 252.936,95.2101 257.27,95.7101 261.5,97C 263.087,99.8652 262.42,102.032 259.5,103.5C 255.037,100.608 250.87,100.941 247,104.5C 242.526,112.451 238.859,120.784 236,129.5C 233.23,137.902 228.397,144.735 221.5,150C 215.21,153.281 208.543,154.281 201.5,153C 200.065,150.733 200.398,148.733 202.5,147C 209.861,148.367 216.361,146.534 222,141.5C 225.172,137.159 227.839,132.492 230,127.5C 233.082,118.588 236.748,109.922 241,101.5C 243.114,98.8792 245.614,96.8792 248.5,95.5 Z"/></g>
<g><path style="opacity:0.975" d="M 352.5,87.5 C 389.835,110.369 413.002,143.369 422,186.5C 423.782,199.817 423.948,213.15 422.5,226.5C 411.162,226.667 399.828,226.5 388.5,226C 384.219,219.385 379.553,213.052 374.5,207C 341.713,208.235 312.713,219.235 287.5,240C 266.167,240.667 244.833,240.667 223.5,240C 218.833,235 213.833,230.333 208.5,226C 256.678,179.989 304.678,133.822 352.5,87.5 Z"/></g>
<g><path style="opacity:0.979" d="M 367.5,212.5 C 369.903,212.393 371.736,213.393 373,215.5C 377.045,221.09 381.212,226.59 385.5,232C 398.18,232.167 410.846,232.667 423.5,233.5C 430.118,258.421 442.618,279.754 461,297.5C 465.707,306.608 463.873,314.108 455.5,320C 449.185,323.403 443.018,326.903 437,330.5C 436.667,350.167 436.333,369.833 436,389.5C 431.429,400.371 423.262,404.871 411.5,403C 373.642,393.601 335.975,383.601 298.5,373C 294.072,369.908 291.239,365.741 290,360.5C 289.841,338.219 286.174,316.552 279,295.5C 270.604,273.444 254.604,263.111 231,264.5C 230.592,258.534 229.092,252.868 226.5,247.5C 248.159,246.667 269.826,246.167 291.5,246C 306.484,232.505 323.817,223.172 343.5,218C 351.562,215.831 359.562,213.998 367.5,212.5 Z M 331.5,264.5 C 349.423,266.515 366.423,263.515 382.5,255.5C 383.041,257.523 382.541,259.523 381,261.5C 376.533,267.151 370.699,270.317 363.5,271C 354.231,272.26 345.231,271.26 336.5,268C 334.416,267.303 332.749,266.136 331.5,264.5 Z"/></g>
<g><path style="opacity:0.932" d="M 141.5,217.5 C 159.679,216.538 177.346,219.038 194.5,225C 222.093,239.45 230.593,261.283 220,290.5C 212.345,305.247 200.178,312.08 183.5,311C 174.584,309.422 168.75,304.256 166,295.5C 161.65,278.717 167.817,268.383 184.5,264.5C 191.368,265.583 195.702,269.416 197.5,276C 196.964,279.072 195.63,281.739 193.5,284C 198.027,284.65 201.194,282.816 203,278.5C 206.539,265.448 203.372,254.281 193.5,245C 184.626,239.599 174.96,236.599 164.5,236C 155.134,235.317 145.801,235.651 136.5,237C 109.898,242.776 83.3981,248.942 57,255.5C 47.0477,253.894 40.3811,248.227 37,238.5C 36.321,235.45 35.4877,232.45 34.5,229.5C 34.7093,228.914 35.0426,228.414 35.5,228C 48.8341,228.801 62.1674,228.467 75.5,227C 97.6251,223.698 119.625,220.531 141.5,217.5 Z"/></g>
<g><path style="opacity:0.916" d="M 144.5,241.5 C 157.796,240.584 170.796,242.084 183.5,246C 190.574,249.034 194.407,254.201 195,261.5C 187.731,256.045 179.564,253.878 170.5,255C 162.195,255.768 154.195,257.768 146.5,261C 132.771,268.706 118.105,273.206 102.5,274.5C 89.3643,275.024 79.0309,270.024 71.5,259.5C 95.4364,251.432 119.77,245.432 144.5,241.5 Z"/></g>
<g><path style="opacity:0.873" d="M 167.5,260.5 C 168.833,260.5 170.167,260.5 171.5,260.5C 169.293,264.22 166.459,267.553 163,270.5C 161.633,278.202 157.133,283.035 149.5,285C 140.523,288.629 131.857,287.962 123.5,283C 121.384,281.829 120.718,280.329 121.5,278.5C 136.403,271.094 151.736,265.094 167.5,260.5 Z"/></g>
<g><path style="opacity:0.961" d="M 230.5,272.5 C 247.516,269.098 260.349,274.765 269,289.5C 272.986,297.123 275.986,305.123 278,313.5C 281.313,330.006 283.313,346.672 284,363.5C 286.933,373.434 293.433,379.6 303.5,382C 321.5,386.667 339.5,391.333 357.5,396C 361.008,407.198 365.675,417.864 371.5,428C 369.447,428.325 367.447,427.991 365.5,427C 315.039,404.718 262.372,390.551 207.5,384.5C 216.818,359.828 217.818,334.828 210.5,309.5C 218.812,302.013 224.979,293.013 229,282.5C 230.043,279.243 230.543,275.91 230.5,272.5 Z"/></g>
</svg>
