<svg id="图层_1" data-name="图层 1" xmlns="http://www.w3.org/2000/svg" xmlns:xlink="http://www.w3.org/1999/xlink" viewBox="0 0 512 512"><defs><style>.cls-1{fill:#282b5a;}.cls-2{fill:#a6e5fc;}.cls-3{fill:url(#未命名的渐变_123);}.cls-4{fill:url(#未命名的渐变_123-2);}</style><linearGradient id="未命名的渐变_123" x1="205.2" y1="375.26" x2="304.86" y2="375.26" gradientTransform="translate(78.23 -204.21)" gradientUnits="userSpaceOnUse"><stop offset="0" stop-color="#9125ea"/><stop offset="0.18" stop-color="#a753ec" stop-opacity="0.95"/><stop offset="0.34" stop-color="#b877ed" stop-opacity="0.91"/><stop offset="0.43" stop-color="#be84ee" stop-opacity="0.9"/><stop offset="1" stop-color="#0ff5fe" stop-opacity="0.02"/><stop offset="1" stop-color="aqua" stop-opacity="0"/></linearGradient><linearGradient id="未命名的渐变_123-2" x1="82.86" y1="546.21" x2="264.81" y2="546.21" gradientTransform="matrix(0.6, -0.71, 0.6, 0.71, -221.98, 33.81)" xlink:href="#未命名的渐变_123"/></defs><rect class="cls-1" width="512" height="512" rx="79.97"/><path class="cls-2" d="M376.77,209.88c-20.78,20.78-56.2,27.18-74.1,9.28s-11.56-53.25,9.22-74,48.13-19.11,66-1.21S397.55,189.1,376.77,209.88Z" transform="translate(0 -1.16)"/><rect class="cls-2" x="111.42" y="265.48" width="207.64" height="82.23" rx="30.76" transform="translate(-153.75 240.84) rotate(-45)"/><path class="cls-3" d="M368,201.11c-20.79,20.78-56.21,27.19-74.11,9.29s-11.56-53.26,9.22-74,48.14-19.12,66-1.22S388.79,180.33,368,201.11Z" transform="translate(0 -1.16)"/><rect class="cls-4" x="168.54" y="193.3" width="77.27" height="207.64" rx="33.07" transform="translate(270.78 -60.63) rotate(45)"/></svg>